<svg xmlns="http://www.w3.org/2000/svg" xmlns:xlink="http://www.w3.org/1999/xlink" width="127" zoomAndPan="magnify" viewBox="0 0 95.25 95.249999" height="127" preserveAspectRatio="xMidYMid meet" version="1.0"><defs><g/><clipPath id="d781ba7c56"><path d="M 0 0 L 94.503906 0 L 94.503906 94.503906 L 0 94.503906 Z M 0 0 " clip-rule="nonzero"/></clipPath><clipPath id="ab8f766904"><path d="M 2.183594 33.203125 L 22.273438 33.203125 L 22.273438 61.480469 L 2.183594 61.480469 Z M 2.183594 33.203125 " clip-rule="nonzero"/></clipPath><clipPath id="d7c859e6da"><path d="M 45 3 L 47.390625 3 L 47.390625 13 L 45 13 Z M 45 3 " clip-rule="nonzero"/></clipPath><clipPath id="fa4c6f9fb1"><rect x="0" width="48" y="0" height="17"/></clipPath><clipPath id="aaeaeb23c1"><path d="M 21 5 L 29 5 L 29 15.722656 L 21 15.722656 Z M 21 5 " clip-rule="nonzero"/></clipPath><clipPath id="25d1c0f5e7"><path d="M 41 5 L 50 5 L 50 15.722656 L 41 15.722656 Z M 41 5 " clip-rule="nonzero"/></clipPath><clipPath id="62bd9be066"><rect x="0" width="68" y="0" height="16"/></clipPath></defs><g clip-path="url(#d781ba7c56)"><path fill="#ffffff" d="M 0 0 L 94.503906 0 L 94.503906 94.503906 L 0 94.503906 Z M 0 0 " fill-opacity="1" fill-rule="nonzero"/><path fill="#ffffff" d="M 0 0 L 94.503906 0 L 94.503906 94.503906 L 0 94.503906 Z M 0 0 " fill-opacity="1" fill-rule="nonzero"/></g><g clip-path="url(#ab8f766904)"><path fill="#a2e848" d="M 10.734375 56.054688 C 10.335938 54.890625 9.605469 53.871094 8.636719 53.117188 L 6.25 51.265625 C 3.800781 49.363281 2.3125 46.480469 2.183594 43.382812 C 2.183594 37.761719 6.742188 33.203125 12.363281 33.203125 C 17.984375 33.203125 22.539062 37.761719 22.539062 43.382812 C 22.410156 46.480469 20.921875 49.363281 18.472656 51.265625 L 16.089844 53.117188 C 15.117188 53.871094 14.386719 54.890625 13.988281 56.054688 L 13.710938 56.871094 C 13.511719 57.449219 12.96875 57.835938 12.363281 57.835938 C 11.753906 57.835938 11.210938 57.449219 11.015625 56.871094 Z M 12.363281 61.296875 C 10.113281 61.296875 8.289062 61.023438 8.289062 60.683594 C 8.289062 60.347656 10.113281 60.074219 12.363281 60.074219 C 14.609375 60.074219 16.433594 60.347656 16.433594 60.683594 C 16.433594 61.023438 14.609375 61.296875 12.363281 61.296875 Z M 12.363281 51.320312 C 16.859375 51.320312 20.503906 47.675781 20.503906 43.179688 C 20.503906 38.683594 16.859375 35.035156 12.363281 35.035156 C 7.863281 35.035156 4.21875 38.683594 4.21875 43.179688 C 4.21875 47.675781 7.863281 51.320312 12.363281 51.320312 Z M 17.042969 44 L 17.042969 46.199219 C 17.042969 46.871094 16.496094 47.417969 15.824219 47.417969 L 8.898438 47.417969 C 8.226562 47.417969 7.679688 46.871094 7.679688 46.199219 L 7.679688 44 L 11.449219 44 L 11.449219 44.046875 C 11.449219 44.550781 11.855469 44.960938 12.363281 44.960938 C 12.867188 44.960938 13.277344 44.550781 13.277344 44.046875 L 13.277344 44 Z M 17.042969 41.332031 L 17.042969 43.386719 L 13.277344 43.386719 C 13.277344 42.917969 12.894531 42.539062 12.425781 42.539062 L 12.296875 42.539062 C 11.828125 42.539062 11.449219 42.917969 11.449219 43.386719 L 7.679688 43.386719 L 7.679688 41.332031 C 7.679688 40.660156 8.226562 40.117188 8.898438 40.117188 L 9.507812 40.117188 L 9.507812 38.898438 C 9.507812 38.226562 10.054688 37.683594 10.726562 37.683594 L 13.996094 37.683594 C 14.667969 37.683594 15.214844 38.226562 15.214844 38.898438 L 15.214844 40.117188 L 15.824219 40.117188 C 16.496094 40.117188 17.042969 40.660156 17.042969 41.332031 Z M 10.484375 40.164062 L 14.238281 40.164062 L 14.238281 39.21875 C 14.238281 38.910156 13.984375 38.65625 13.675781 38.65625 L 11.046875 38.65625 C 10.738281 38.65625 10.484375 38.910156 10.484375 39.21875 Z M 10.484375 40.164062 " fill-opacity="1" fill-rule="nonzero"/></g><g transform="matrix(1, 0, 0, 1, 25, 34)"><g clip-path="url(#fa4c6f9fb1)"><g fill="#141412" fill-opacity="1"><g transform="translate(0.856141, 12.860811)"><g><path d="M 0.40625 -4.78125 C 0.40625 -5.351562 0.507812 -5.921875 0.71875 -6.484375 C 0.925781 -7.046875 1.226562 -7.546875 1.625 -7.984375 C 2.03125 -8.429688 2.519531 -8.789062 3.09375 -9.0625 C 3.664062 -9.34375 4.320312 -9.484375 5.0625 -9.484375 C 5.925781 -9.484375 6.675781 -9.289062 7.3125 -8.90625 C 7.945312 -8.53125 8.414062 -8.035156 8.71875 -7.421875 L 7.3125 -6.453125 C 7.1875 -6.722656 7.035156 -6.945312 6.859375 -7.125 C 6.679688 -7.300781 6.488281 -7.441406 6.28125 -7.546875 C 6.082031 -7.660156 5.875 -7.738281 5.65625 -7.78125 C 5.4375 -7.832031 5.21875 -7.859375 5 -7.859375 C 4.539062 -7.859375 4.140625 -7.765625 3.796875 -7.578125 C 3.460938 -7.398438 3.179688 -7.160156 2.953125 -6.859375 C 2.722656 -6.566406 2.550781 -6.226562 2.4375 -5.84375 C 2.320312 -5.46875 2.265625 -5.097656 2.265625 -4.734375 C 2.265625 -4.316406 2.332031 -3.914062 2.46875 -3.53125 C 2.601562 -3.144531 2.789062 -2.804688 3.03125 -2.515625 C 3.28125 -2.222656 3.570312 -1.988281 3.90625 -1.8125 C 4.25 -1.632812 4.625 -1.546875 5.03125 -1.546875 C 5.25 -1.546875 5.472656 -1.570312 5.703125 -1.625 C 5.929688 -1.675781 6.148438 -1.757812 6.359375 -1.875 C 6.566406 -1.988281 6.757812 -2.132812 6.9375 -2.3125 C 7.113281 -2.5 7.253906 -2.71875 7.359375 -2.96875 L 8.859375 -2.109375 C 8.710938 -1.753906 8.5 -1.441406 8.21875 -1.171875 C 7.9375 -0.898438 7.617188 -0.671875 7.265625 -0.484375 C 6.921875 -0.304688 6.546875 -0.164062 6.140625 -0.0625 C 5.742188 0.03125 5.359375 0.078125 4.984375 0.078125 C 4.304688 0.078125 3.6875 -0.0625 3.125 -0.34375 C 2.570312 -0.625 2.09375 -0.992188 1.6875 -1.453125 C 1.289062 -1.910156 0.976562 -2.425781 0.75 -3 C 0.519531 -3.582031 0.40625 -4.175781 0.40625 -4.78125 Z M 0.40625 -4.78125 "/></g></g></g><g fill="#141412" fill-opacity="1"><g transform="translate(9.168783, 12.860811)"><g><path d="M 4.03125 0.140625 C 3.457031 0.140625 2.941406 0.0390625 2.484375 -0.15625 C 2.035156 -0.351562 1.65625 -0.617188 1.34375 -0.953125 C 1.03125 -1.285156 0.789062 -1.664062 0.625 -2.09375 C 0.457031 -2.53125 0.375 -2.988281 0.375 -3.46875 C 0.375 -3.957031 0.457031 -4.414062 0.625 -4.84375 C 0.789062 -5.28125 1.03125 -5.664062 1.34375 -6 C 1.65625 -6.332031 2.035156 -6.59375 2.484375 -6.78125 C 2.941406 -6.976562 3.457031 -7.078125 4.03125 -7.078125 C 4.59375 -7.078125 5.097656 -6.976562 5.546875 -6.78125 C 5.992188 -6.59375 6.375 -6.332031 6.6875 -6 C 7 -5.664062 7.238281 -5.28125 7.40625 -4.84375 C 7.570312 -4.414062 7.65625 -3.957031 7.65625 -3.46875 C 7.65625 -2.988281 7.570312 -2.53125 7.40625 -2.09375 C 7.238281 -1.664062 7 -1.285156 6.6875 -0.953125 C 6.382812 -0.617188 6.003906 -0.351562 5.546875 -0.15625 C 5.097656 0.0390625 4.59375 0.140625 4.03125 0.140625 Z M 2.203125 -3.46875 C 2.203125 -3.15625 2.25 -2.875 2.34375 -2.625 C 2.4375 -2.375 2.5625 -2.15625 2.71875 -1.96875 C 2.882812 -1.78125 3.078125 -1.632812 3.296875 -1.53125 C 3.523438 -1.425781 3.769531 -1.375 4.03125 -1.375 C 4.28125 -1.375 4.515625 -1.425781 4.734375 -1.53125 C 4.960938 -1.632812 5.15625 -1.78125 5.3125 -1.96875 C 5.476562 -2.15625 5.609375 -2.375 5.703125 -2.625 C 5.796875 -2.882812 5.84375 -3.171875 5.84375 -3.484375 C 5.84375 -3.785156 5.796875 -4.0625 5.703125 -4.3125 C 5.609375 -4.570312 5.476562 -4.796875 5.3125 -4.984375 C 5.15625 -5.171875 4.960938 -5.3125 4.734375 -5.40625 C 4.515625 -5.507812 4.28125 -5.5625 4.03125 -5.5625 C 3.769531 -5.5625 3.523438 -5.507812 3.296875 -5.40625 C 3.078125 -5.300781 2.882812 -5.15625 2.71875 -4.96875 C 2.5625 -4.78125 2.4375 -4.554688 2.34375 -4.296875 C 2.25 -4.046875 2.203125 -3.769531 2.203125 -3.46875 Z M 2.203125 -3.46875 "/></g></g></g><g fill="#141412" fill-opacity="1"><g transform="translate(16.41909, 12.860811)"><g><path d="M 7.28125 0 L 5.5 0 L 5.5 -3.90625 C 5.5 -4.457031 5.398438 -4.863281 5.203125 -5.125 C 5.015625 -5.382812 4.742188 -5.515625 4.390625 -5.515625 C 4.210938 -5.515625 4.03125 -5.476562 3.84375 -5.40625 C 3.664062 -5.332031 3.492188 -5.234375 3.328125 -5.109375 C 3.160156 -4.984375 3.007812 -4.832031 2.875 -4.65625 C 2.75 -4.476562 2.65625 -4.28125 2.59375 -4.0625 L 2.59375 0 L 0.8125 0 L 0.8125 -6.953125 L 2.421875 -6.953125 L 2.421875 -5.671875 C 2.671875 -6.109375 3.039062 -6.453125 3.53125 -6.703125 C 4.019531 -6.953125 4.570312 -7.078125 5.1875 -7.078125 C 5.613281 -7.078125 5.960938 -6.992188 6.234375 -6.828125 C 6.515625 -6.671875 6.726562 -6.460938 6.875 -6.203125 C 7.03125 -5.953125 7.132812 -5.660156 7.1875 -5.328125 C 7.25 -5.003906 7.28125 -4.675781 7.28125 -4.34375 Z M 7.28125 0 "/></g></g></g><g fill="#141412" fill-opacity="1"><g transform="translate(23.642838, 12.860811)"><g><path d="M 2.6875 0 L 0.125 -6.953125 L 1.953125 -6.953125 L 3.71875 -1.453125 L 5.5 -6.953125 L 7.171875 -6.953125 L 4.609375 0 Z M 2.6875 0 "/></g></g></g><g fill="#141412" fill-opacity="1"><g transform="translate(30.136229, 12.860811)"><g><path d="M 4.03125 0.140625 C 3.476562 0.140625 2.972656 0.046875 2.515625 -0.140625 C 2.066406 -0.335938 1.679688 -0.597656 1.359375 -0.921875 C 1.046875 -1.253906 0.800781 -1.632812 0.625 -2.0625 C 0.457031 -2.5 0.375 -2.957031 0.375 -3.4375 C 0.375 -3.9375 0.457031 -4.40625 0.625 -4.84375 C 0.789062 -5.28125 1.03125 -5.664062 1.34375 -6 C 1.664062 -6.332031 2.054688 -6.59375 2.515625 -6.78125 C 2.972656 -6.976562 3.484375 -7.078125 4.046875 -7.078125 C 4.617188 -7.078125 5.128906 -6.976562 5.578125 -6.78125 C 6.023438 -6.59375 6.40625 -6.332031 6.71875 -6 C 7.03125 -5.675781 7.265625 -5.296875 7.421875 -4.859375 C 7.585938 -4.421875 7.671875 -3.96875 7.671875 -3.5 C 7.671875 -3.382812 7.664062 -3.273438 7.65625 -3.171875 C 7.65625 -3.066406 7.648438 -2.976562 7.640625 -2.90625 L 2.265625 -2.90625 C 2.285156 -2.632812 2.347656 -2.390625 2.453125 -2.171875 C 2.554688 -1.960938 2.691406 -1.78125 2.859375 -1.625 C 3.035156 -1.476562 3.226562 -1.363281 3.4375 -1.28125 C 3.65625 -1.207031 3.878906 -1.171875 4.109375 -1.171875 C 4.460938 -1.171875 4.796875 -1.253906 5.109375 -1.421875 C 5.421875 -1.597656 5.632812 -1.828125 5.75 -2.109375 L 7.28125 -1.6875 C 7.019531 -1.15625 6.609375 -0.71875 6.046875 -0.375 C 5.484375 -0.03125 4.8125 0.140625 4.03125 0.140625 Z M 5.84375 -4.0625 C 5.800781 -4.582031 5.609375 -5 5.265625 -5.3125 C 4.921875 -5.632812 4.507812 -5.796875 4.03125 -5.796875 C 3.789062 -5.796875 3.566406 -5.75 3.359375 -5.65625 C 3.148438 -5.570312 2.960938 -5.457031 2.796875 -5.3125 C 2.640625 -5.164062 2.507812 -4.984375 2.40625 -4.765625 C 2.3125 -4.554688 2.253906 -4.320312 2.234375 -4.0625 Z M 5.84375 -4.0625 "/></g></g></g><g fill="#141412" fill-opacity="1"><g transform="translate(37.293578, 12.860811)"><g><path d="M 7.28125 0 L 5.5 0 L 5.5 -3.90625 C 5.5 -4.457031 5.398438 -4.863281 5.203125 -5.125 C 5.015625 -5.382812 4.742188 -5.515625 4.390625 -5.515625 C 4.210938 -5.515625 4.03125 -5.476562 3.84375 -5.40625 C 3.664062 -5.332031 3.492188 -5.234375 3.328125 -5.109375 C 3.160156 -4.984375 3.007812 -4.832031 2.875 -4.65625 C 2.75 -4.476562 2.65625 -4.28125 2.59375 -4.0625 L 2.59375 0 L 0.8125 0 L 0.8125 -6.953125 L 2.421875 -6.953125 L 2.421875 -5.671875 C 2.671875 -6.109375 3.039062 -6.453125 3.53125 -6.703125 C 4.019531 -6.953125 4.570312 -7.078125 5.1875 -7.078125 C 5.613281 -7.078125 5.960938 -6.992188 6.234375 -6.828125 C 6.515625 -6.671875 6.726562 -6.460938 6.875 -6.203125 C 7.03125 -5.953125 7.132812 -5.660156 7.1875 -5.328125 C 7.25 -5.003906 7.28125 -4.675781 7.28125 -4.34375 Z M 7.28125 0 "/></g></g></g><g clip-path="url(#d7c859e6da)"><g fill="#141412" fill-opacity="1"><g transform="translate(44.517326, 12.860811)"><g><path d="M 0.8125 0 L 0.8125 -6.953125 L 2.59375 -6.953125 L 2.59375 0 Z M 0.8125 -7.921875 L 0.8125 -9.703125 L 2.59375 -9.703125 L 2.59375 -7.921875 Z M 0.8125 -7.921875 "/></g></g></g></g></g></g><g transform="matrix(1, 0, 0, 1, 25, 45)"><g clip-path="url(#62bd9be066)"><g fill="#141412" fill-opacity="1"><g transform="translate(0.856141, 12.37727)"><g><path d="M 3.875 0.125 C 3.300781 0.125 2.785156 0.0351562 2.328125 -0.140625 C 1.867188 -0.328125 1.484375 -0.578125 1.171875 -0.890625 C 0.867188 -1.203125 0.632812 -1.554688 0.46875 -1.953125 C 0.3125 -2.359375 0.234375 -2.785156 0.234375 -3.234375 C 0.234375 -3.710938 0.3125 -4.164062 0.46875 -4.59375 C 0.625 -5.03125 0.851562 -5.40625 1.15625 -5.71875 C 1.46875 -6.039062 1.847656 -6.296875 2.296875 -6.484375 C 2.753906 -6.679688 3.28125 -6.78125 3.875 -6.78125 C 4.46875 -6.78125 4.988281 -6.679688 5.4375 -6.484375 C 5.894531 -6.296875 6.273438 -6.046875 6.578125 -5.734375 C 6.890625 -5.421875 7.125 -5.050781 7.28125 -4.625 C 7.4375 -4.207031 7.515625 -3.773438 7.515625 -3.328125 C 7.515625 -3.203125 7.507812 -3.070312 7.5 -2.9375 C 7.488281 -2.8125 7.472656 -2.695312 7.453125 -2.59375 L 2.796875 -2.59375 C 2.816406 -2.238281 2.945312 -1.984375 3.1875 -1.828125 C 3.425781 -1.671875 3.679688 -1.59375 3.953125 -1.59375 C 4.210938 -1.59375 4.457031 -1.648438 4.6875 -1.765625 C 4.925781 -1.890625 5.082031 -2.054688 5.15625 -2.265625 L 7.1875 -1.6875 C 6.914062 -1.15625 6.5 -0.71875 5.9375 -0.375 C 5.382812 -0.0390625 4.695312 0.125 3.875 0.125 Z M 4.9375 -4.03125 C 4.894531 -4.351562 4.773438 -4.601562 4.578125 -4.78125 C 4.390625 -4.96875 4.144531 -5.0625 3.84375 -5.0625 C 3.539062 -5.0625 3.289062 -4.96875 3.09375 -4.78125 C 2.90625 -4.601562 2.789062 -4.351562 2.75 -4.03125 Z M 4.9375 -4.03125 "/></g></g></g><g fill="#141412" fill-opacity="1"><g transform="translate(8.570194, 12.37727)"><g><path d="M 11.328125 0 L 8.921875 0 L 8.921875 -3.734375 C 8.921875 -4.066406 8.851562 -4.304688 8.71875 -4.453125 C 8.59375 -4.597656 8.4375 -4.671875 8.25 -4.671875 C 8.0625 -4.671875 7.859375 -4.582031 7.640625 -4.40625 C 7.421875 -4.226562 7.265625 -4.003906 7.171875 -3.734375 L 7.171875 0 L 4.765625 0 L 4.765625 -3.734375 C 4.765625 -4.066406 4.695312 -4.304688 4.5625 -4.453125 C 4.4375 -4.597656 4.28125 -4.671875 4.09375 -4.671875 C 3.90625 -4.671875 3.703125 -4.582031 3.484375 -4.40625 C 3.265625 -4.226562 3.109375 -4.003906 3.015625 -3.734375 L 3.015625 0 L 0.609375 0 L 0.609375 -6.65625 L 2.765625 -6.65625 L 2.765625 -5.65625 C 3.003906 -6.019531 3.328125 -6.296875 3.734375 -6.484375 C 4.148438 -6.679688 4.640625 -6.78125 5.203125 -6.78125 C 5.472656 -6.78125 5.707031 -6.742188 5.90625 -6.671875 C 6.113281 -6.609375 6.289062 -6.519531 6.4375 -6.40625 C 6.582031 -6.300781 6.695312 -6.179688 6.78125 -6.046875 C 6.875 -5.921875 6.945312 -5.78125 7 -5.625 C 7.238281 -5.988281 7.5625 -6.269531 7.96875 -6.46875 C 8.375 -6.675781 8.835938 -6.78125 9.359375 -6.78125 C 9.804688 -6.78125 10.15625 -6.695312 10.40625 -6.53125 C 10.664062 -6.363281 10.863281 -6.15625 11 -5.90625 C 11.132812 -5.664062 11.222656 -5.40625 11.265625 -5.125 C 11.304688 -4.851562 11.328125 -4.601562 11.328125 -4.375 Z M 11.328125 0 "/></g></g></g><g clip-path="url(#aaeaeb23c1)"><g fill="#141412" fill-opacity="1"><g transform="translate(20.457422, 12.37727)"><g><path d="M 5.078125 0.125 C 4.597656 0.125 4.179688 0.03125 3.828125 -0.15625 C 3.472656 -0.34375 3.203125 -0.617188 3.015625 -0.984375 L 3.015625 2.6875 L 0.609375 2.6875 L 0.609375 -6.65625 L 2.6875 -6.65625 L 2.6875 -5.65625 C 2.925781 -6.007812 3.21875 -6.285156 3.5625 -6.484375 C 3.90625 -6.679688 4.332031 -6.78125 4.84375 -6.78125 C 5.28125 -6.78125 5.6875 -6.691406 6.0625 -6.515625 C 6.445312 -6.335938 6.773438 -6.097656 7.046875 -5.796875 C 7.316406 -5.492188 7.523438 -5.128906 7.671875 -4.703125 C 7.828125 -4.285156 7.90625 -3.832031 7.90625 -3.34375 C 7.90625 -2.851562 7.832031 -2.394531 7.6875 -1.96875 C 7.550781 -1.539062 7.351562 -1.171875 7.09375 -0.859375 C 6.84375 -0.546875 6.546875 -0.300781 6.203125 -0.125 C 5.859375 0.0390625 5.484375 0.125 5.078125 0.125 Z M 4.25 -1.890625 C 4.425781 -1.890625 4.585938 -1.925781 4.734375 -2 C 4.878906 -2.082031 5.003906 -2.191406 5.109375 -2.328125 C 5.210938 -2.460938 5.296875 -2.617188 5.359375 -2.796875 C 5.421875 -2.972656 5.453125 -3.160156 5.453125 -3.359375 C 5.453125 -3.785156 5.332031 -4.125 5.09375 -4.375 C 4.851562 -4.625 4.535156 -4.75 4.140625 -4.75 C 3.691406 -4.75 3.316406 -4.519531 3.015625 -4.0625 L 3.015625 -2.921875 C 3.128906 -2.628906 3.300781 -2.382812 3.53125 -2.1875 C 3.757812 -1.988281 4 -1.890625 4.25 -1.890625 Z M 4.25 -1.890625 "/></g></g></g></g><g fill="#141412" fill-opacity="1"><g transform="translate(28.626731, 12.37727)"><g><path d="M 5.125 -4.59375 C 4.65625 -4.59375 4.226562 -4.539062 3.84375 -4.4375 C 3.46875 -4.34375 3.191406 -4.175781 3.015625 -3.9375 L 3.015625 0 L 0.609375 0 L 0.609375 -6.65625 L 2.8125 -6.65625 L 2.8125 -5.390625 C 3.039062 -5.835938 3.328125 -6.179688 3.671875 -6.421875 C 4.023438 -6.660156 4.40625 -6.78125 4.8125 -6.78125 C 4.976562 -6.78125 5.082031 -6.773438 5.125 -6.765625 Z M 5.125 -4.59375 "/></g></g></g><g fill="#141412" fill-opacity="1"><g transform="translate(33.90011, 12.37727)"><g><path d="M 3.875 0.125 C 3.300781 0.125 2.785156 0.0351562 2.328125 -0.140625 C 1.867188 -0.328125 1.484375 -0.578125 1.171875 -0.890625 C 0.867188 -1.203125 0.632812 -1.554688 0.46875 -1.953125 C 0.3125 -2.359375 0.234375 -2.785156 0.234375 -3.234375 C 0.234375 -3.710938 0.3125 -4.164062 0.46875 -4.59375 C 0.625 -5.03125 0.851562 -5.40625 1.15625 -5.71875 C 1.46875 -6.039062 1.847656 -6.296875 2.296875 -6.484375 C 2.753906 -6.679688 3.28125 -6.78125 3.875 -6.78125 C 4.46875 -6.78125 4.988281 -6.679688 5.4375 -6.484375 C 5.894531 -6.296875 6.273438 -6.046875 6.578125 -5.734375 C 6.890625 -5.421875 7.125 -5.050781 7.28125 -4.625 C 7.4375 -4.207031 7.515625 -3.773438 7.515625 -3.328125 C 7.515625 -3.203125 7.507812 -3.070312 7.5 -2.9375 C 7.488281 -2.8125 7.472656 -2.695312 7.453125 -2.59375 L 2.796875 -2.59375 C 2.816406 -2.238281 2.945312 -1.984375 3.1875 -1.828125 C 3.425781 -1.671875 3.679688 -1.59375 3.953125 -1.59375 C 4.210938 -1.59375 4.457031 -1.648438 4.6875 -1.765625 C 4.925781 -1.890625 5.082031 -2.054688 5.15625 -2.265625 L 7.1875 -1.6875 C 6.914062 -1.15625 6.5 -0.71875 5.9375 -0.375 C 5.382812 -0.0390625 4.695312 0.125 3.875 0.125 Z M 4.9375 -4.03125 C 4.894531 -4.351562 4.773438 -4.601562 4.578125 -4.78125 C 4.390625 -4.96875 4.144531 -5.0625 3.84375 -5.0625 C 3.539062 -5.0625 3.289062 -4.96875 3.09375 -4.78125 C 2.90625 -4.601562 2.789062 -4.351562 2.75 -4.03125 Z M 4.9375 -4.03125 "/></g></g></g><g clip-path="url(#25d1c0f5e7)"><g fill="#141412" fill-opacity="1"><g transform="translate(41.614164, 12.37727)"><g><path d="M 3.15625 0 C 2.726562 0 2.332031 -0.0820312 1.96875 -0.25 C 1.613281 -0.425781 1.3125 -0.664062 1.0625 -0.96875 C 0.8125 -1.269531 0.613281 -1.617188 0.46875 -2.015625 C 0.332031 -2.421875 0.265625 -2.863281 0.265625 -3.34375 C 0.265625 -3.832031 0.335938 -4.285156 0.484375 -4.703125 C 0.640625 -5.128906 0.851562 -5.492188 1.125 -5.796875 C 1.40625 -6.097656 1.734375 -6.335938 2.109375 -6.515625 C 2.492188 -6.691406 2.910156 -6.78125 3.359375 -6.78125 C 3.835938 -6.78125 4.257812 -6.679688 4.625 -6.484375 C 4.988281 -6.296875 5.273438 -6.019531 5.484375 -5.65625 L 5.484375 -6.65625 L 7.578125 -6.65625 L 7.578125 -0.609375 C 7.578125 -0.0859375 7.476562 0.378906 7.28125 0.796875 C 7.082031 1.222656 6.804688 1.582031 6.453125 1.875 C 6.097656 2.175781 5.671875 2.40625 5.171875 2.5625 C 4.679688 2.726562 4.132812 2.8125 3.53125 2.8125 C 2.820312 2.8125 2.203125 2.703125 1.671875 2.484375 C 1.148438 2.265625 0.691406 1.953125 0.296875 1.546875 L 1.5625 0.234375 C 1.800781 0.453125 2.085938 0.640625 2.421875 0.796875 C 2.765625 0.953125 3.132812 1.03125 3.53125 1.03125 C 3.75 1.03125 3.957031 1 4.15625 0.9375 C 4.351562 0.882812 4.523438 0.789062 4.671875 0.65625 C 4.828125 0.53125 4.945312 0.359375 5.03125 0.140625 C 5.125 -0.0664062 5.171875 -0.316406 5.171875 -0.609375 L 5.171875 -1.03125 C 4.972656 -0.675781 4.695312 -0.414062 4.34375 -0.25 C 3.988281 -0.0820312 3.59375 0 3.15625 0 Z M 4.015625 -1.890625 C 4.265625 -1.890625 4.476562 -1.945312 4.65625 -2.0625 C 4.84375 -2.175781 5.015625 -2.347656 5.171875 -2.578125 L 5.171875 -3.765625 C 5.054688 -4.066406 4.878906 -4.304688 4.640625 -4.484375 C 4.410156 -4.660156 4.171875 -4.75 3.921875 -4.75 C 3.753906 -4.75 3.59375 -4.707031 3.4375 -4.625 C 3.289062 -4.550781 3.160156 -4.445312 3.046875 -4.3125 C 2.941406 -4.1875 2.859375 -4.03125 2.796875 -3.84375 C 2.742188 -3.664062 2.71875 -3.476562 2.71875 -3.28125 C 2.71875 -2.863281 2.835938 -2.523438 3.078125 -2.265625 C 3.328125 -2.015625 3.640625 -1.890625 4.015625 -1.890625 Z M 4.015625 -1.890625 "/></g></g></g></g><g fill="#141412" fill-opacity="1"><g transform="translate(49.796118, 12.37727)"><g><path d="M 3.875 0.125 C 3.28125 0.125 2.753906 0.03125 2.296875 -0.15625 C 1.847656 -0.34375 1.46875 -0.59375 1.15625 -0.90625 C 0.851562 -1.226562 0.625 -1.597656 0.46875 -2.015625 C 0.3125 -2.429688 0.234375 -2.867188 0.234375 -3.328125 C 0.234375 -3.773438 0.3125 -4.207031 0.46875 -4.625 C 0.625 -5.050781 0.851562 -5.421875 1.15625 -5.734375 C 1.46875 -6.046875 1.847656 -6.296875 2.296875 -6.484375 C 2.753906 -6.679688 3.28125 -6.78125 3.875 -6.78125 C 4.46875 -6.78125 4.988281 -6.679688 5.4375 -6.484375 C 5.894531 -6.296875 6.273438 -6.046875 6.578125 -5.734375 C 6.890625 -5.421875 7.125 -5.050781 7.28125 -4.625 C 7.4375 -4.207031 7.515625 -3.773438 7.515625 -3.328125 C 7.515625 -2.867188 7.4375 -2.429688 7.28125 -2.015625 C 7.125 -1.597656 6.890625 -1.226562 6.578125 -0.90625 C 6.273438 -0.59375 5.894531 -0.34375 5.4375 -0.15625 C 4.988281 0.03125 4.46875 0.125 3.875 0.125 Z M 2.703125 -3.328125 C 2.703125 -2.878906 2.8125 -2.523438 3.03125 -2.265625 C 3.25 -2.015625 3.53125 -1.890625 3.875 -1.890625 C 4.226562 -1.890625 4.515625 -2.015625 4.734375 -2.265625 C 4.953125 -2.523438 5.0625 -2.878906 5.0625 -3.328125 C 5.0625 -3.773438 4.953125 -4.125 4.734375 -4.375 C 4.515625 -4.625 4.226562 -4.75 3.875 -4.75 C 3.53125 -4.75 3.25 -4.625 3.03125 -4.375 C 2.8125 -4.125 2.703125 -3.773438 2.703125 -3.328125 Z M 2.703125 -3.328125 "/></g></g></g><g fill="#141412" fill-opacity="1"><g transform="translate(57.560753, 12.37727)"><g><path d="M 3.5625 0.125 C 3.28125 0.125 2.976562 0.101562 2.65625 0.0625 C 2.34375 0.0195312 2.03125 -0.03125 1.71875 -0.09375 C 1.414062 -0.164062 1.117188 -0.25 0.828125 -0.34375 C 0.546875 -0.445312 0.300781 -0.554688 0.09375 -0.671875 L 1.015625 -2.296875 C 1.472656 -2.054688 1.910156 -1.875 2.328125 -1.75 C 2.753906 -1.625 3.148438 -1.5625 3.515625 -1.5625 C 3.929688 -1.5625 4.140625 -1.664062 4.140625 -1.875 C 4.140625 -1.976562 4.054688 -2.070312 3.890625 -2.15625 C 3.722656 -2.238281 3.40625 -2.34375 2.9375 -2.46875 C 2.457031 -2.59375 2.054688 -2.71875 1.734375 -2.84375 C 1.421875 -2.96875 1.164062 -3.109375 0.96875 -3.265625 C 0.78125 -3.421875 0.644531 -3.59375 0.5625 -3.78125 C 0.476562 -3.96875 0.4375 -4.191406 0.4375 -4.453125 C 0.4375 -4.785156 0.503906 -5.09375 0.640625 -5.375 C 0.773438 -5.664062 0.96875 -5.914062 1.21875 -6.125 C 1.476562 -6.34375 1.78125 -6.503906 2.125 -6.609375 C 2.476562 -6.722656 2.863281 -6.78125 3.28125 -6.78125 C 3.71875 -6.78125 4.191406 -6.71875 4.703125 -6.59375 C 5.210938 -6.46875 5.734375 -6.285156 6.265625 -6.046875 L 5.34375 -4.515625 C 4.875 -4.734375 4.484375 -4.890625 4.171875 -4.984375 C 3.859375 -5.078125 3.5625 -5.125 3.28125 -5.125 C 3.09375 -5.125 2.941406 -5.097656 2.828125 -5.046875 C 2.710938 -4.992188 2.65625 -4.910156 2.65625 -4.796875 C 2.65625 -4.722656 2.671875 -4.660156 2.703125 -4.609375 C 2.734375 -4.566406 2.789062 -4.523438 2.875 -4.484375 C 2.96875 -4.441406 3.085938 -4.394531 3.234375 -4.34375 C 3.378906 -4.300781 3.5625 -4.253906 3.78125 -4.203125 C 4.28125 -4.078125 4.703125 -3.945312 5.046875 -3.8125 C 5.398438 -3.675781 5.675781 -3.523438 5.875 -3.359375 C 6.082031 -3.191406 6.226562 -3.003906 6.3125 -2.796875 C 6.40625 -2.585938 6.453125 -2.347656 6.453125 -2.078125 C 6.453125 -1.398438 6.191406 -0.863281 5.671875 -0.46875 C 5.160156 -0.0703125 4.457031 0.125 3.5625 0.125 Z M 3.5625 0.125 "/></g></g></g><g fill="#141412" fill-opacity="1"><g transform="translate(64.225188, 12.37727)"><g><path d="M 0.625 0 L 0.625 -2.328125 L 2.578125 -2.328125 L 2.578125 0 Z M 0.625 0 "/></g></g></g></g></g></svg>